Coordinates
version=1
nRows=18
nColumns=38
inDegrees=yes

Units are S.I. units (second, meters, Newtons, ...)
Angles are in degrees.

endheader
time	pelvis_tilt	pelvis_list	pelvis_rotation	pelvis_tx	pelvis_ty	pelvis_tz	hip_flexion_r	hip_adduction_r	hip_rotation_r	knee_angle_r	ankle_angle_r	subtalar_angle_r	mtp_angle_r	hip_flexion_l	hip_adduction_l	hip_rotation_l	knee_angle_l	ankle_angle_l	subtalar_angle_l	mtp_angle_l	lumbar_extension	lumbar_bending	lumbar_rotation	arm_flex_r	arm_add_r	arm_rot_r	elbow_flex_r	pro_sup_r	wrist_flex_r	wrist_dev_r	arm_flex_l	arm_add_l	arm_rot_l	elbow_flex_l	pro_sup_l	wrist_flex_l	wrist_dev_l
      1.59000000	      1.20630806	     -5.83718355	      2.56857485	     -0.24622970	      0.91152524	      0.20892691	     13.64007678	      9.79355841	     -8.71228543	    -23.67499743	     10.33303599	      3.22468773	     86.12150964	     10.84767262	     -4.24046823	      5.23686662	    -64.65197028	     -8.95891569	      0.62444850	    -20.99893007	     -7.08875990	      9.75938055	     -5.67583704	     -5.10893597	    -17.30348053	     12.22179266	     17.75354866	     86.51662706	      0.00000000	      0.00000000	     -0.30566859	    -14.54633003	     18.44223176	     30.19739136	     86.51662706	      0.00000000	      0.00000000
      1.60000000	      1.27570171	     -5.50786360	      2.76233373	     -0.23315830	      0.91430585	      0.20942748	     12.18991743	      9.47704943	     -9.03584969	    -22.54601106	     10.81393594	      3.85431186	    151.60208124	     12.56209074	     -3.59119065	      5.52278728	    -64.95704846	     -7.30347321	     -0.11327609	    -20.16627370	     -7.20581027	      9.36495213	     -5.41472315	     -4.69404433	    -17.37002924	     12.39694846	     18.46783857	     86.51662706	      0.00000000	      0.00000000	     -0.20850158	    -14.39701794	     19.60941030	     28.52334676	     86.51662706	      0.00000000	      0.00000000
      1.61000000	      1.25134223	     -5.14834991	      2.86977872	     -0.22040378	      0.91675971	      0.21001571	     10.69635255	      9.18972466	     -9.18174542	    -21.55316271	     11.60781722	      4.33496332	    227.54444079	     14.23780569	     -2.95378127	      5.66183409	    -64.88793589	     -5.77702774	     -0.73517921	    -19.23783661	     -7.27858253	      8.92590104	     -5.07382005	     -4.26865370	    -17.45250237	     12.57846268	     19.19153345	     86.51662706	      0.00000000	      0.00000000	     -0.16682252	    -14.24835304	     20.71604805	     26.89054912	     86.51662706	      0.00000000	      0.00000000
      1.62000000	      1.17832807	     -4.75499040	      2.90126885	     -0.20755234	      0.91836011	      0.21068300	      9.21940389	      8.92542992	     -9.12958516	    -20.70057608	     12.53755428	      4.67760725	    313.99464886	     15.85987428	     -2.34364396	      5.65133954	    -64.48006836	     -4.38926167	     -1.27427051	    -18.21620622	     -7.30976071	      8.44618070	     -4.66243497	     -3.83508608	    -17.55491789	     12.75415054	     19.92607000	     86.51662706	      0.00000000	      0.00000000	     -0.18285149	    -14.10110271	     21.74381623	     25.31741803	     86.51662706	      0.00000000	      0.00000000
      1.63000000	      1.11367635	     -4.34070921	      2.85976832	     -0.19428102	      0.91945319	      0.21150655	      7.83122311	      8.67075418	     -8.88729169	    -19.93007593	     13.44878221	      4.90684195	    410.93270328	     17.40646726	     -1.77277901	      5.50126426	    -63.76341650	     -3.14506439	     -1.76375684	    -17.10541597	     -7.31261817	      7.93506561	     -4.19147332	     -3.39256374	    -17.68169242	     12.91312862	     20.67327924	     86.51662706	      0.00000000	      0.00000000	     -0.25405883	    -13.95705071	     22.68030167	     23.81585898	     86.51662706	      0.00000000	      0.00000000
      1.64000000	      1.06410114	     -3.92447533	      2.74677640	     -0.18091151	      0.92057207	      0.21248089	      6.53462534	      8.42244591	     -8.48920597	    -19.18655302	     14.23691005	      5.05467993	    518.29431175	     18.86199971	     -1.25152294	      5.23638662	    -62.75612603	     -2.04916291	     -2.23248371	    -15.91096220	     -7.30673429	      7.41016350	     -3.67158680	     -2.93740024	    -17.83710164	     13.04715908	     21.43505790	     86.51662706	      0.00000000	      0.00000000	     -0.37372866	    -13.81783843	     23.51869314	     22.39211116	     86.51662706	      0.00000000	      0.00000000
      1.65000000	      1.00822523	     -3.52224772	      2.57025875	     -0.16783972	      0.92163142	      0.21348672	      5.27443299	      8.18920706	     -7.98663899	    -18.43648038	     14.84570726	      5.15869062	    635.99538725	     20.21916142	     -0.78896019	      4.89315536	    -61.46667933	     -1.10705874	     -2.70281377	    -14.63979919	     -7.31184392	      6.89572009	     -3.11317050	     -2.46477771	    -18.02468703	     13.15160048	     22.21292023	     86.51662706	      0.00000000	      0.00000000	     -0.53244066	    -13.68427960	     24.25704640	     21.04822955	     86.51662706	      0.00000000	      0.00000000
      1.66000000	      0.94854868	     -3.15089298	      2.34668889	     -0.15493561	      0.92233895	      0.21445411	      3.99901094	      7.97988342	     -7.43800538	    -17.65248081	     15.25841053	      5.25934196	    763.95968493	     21.47124703	     -0.39276050	      4.51266683	    -59.90064197	     -0.32345518	     -3.19041926	    -13.30031080	     -7.34358154	      6.41755697	     -2.52710468	     -1.97085767	    -18.24667207	     13.22584094	     23.00748414	     86.51662706	      0.00000000	      0.00000000	     -0.72015622	    -13.55624659	     24.89731440	     19.78372850	     86.51662706	      0.00000000	      0.00000000
      1.67000000	      0.90766124	     -2.82834262	      2.09711586	     -0.14196172	      0.92271607	      0.21541320	      2.67696909	      7.79886507	     -6.90268930	    -16.81379272	     15.48455080	      5.39524884	    902.15030821	     22.60632688	     -0.06821899	      4.13319958	    -58.06605719	      0.30060761	     -3.70521708	    -11.90225687	     -7.41273564	      5.99733480	     -1.92502518	     -1.45385755	    -18.50354015	     13.27316458	     23.81800718	     86.51662706	      0.00000000	      0.00000000	     -0.92818836	    -13.43296609	     25.44427087	     18.59701103	     86.51662706	      0.00000000	      0.00000000
      1.68000000	      0.90559653	     -2.56560504	      1.84079592	     -0.12890996	      0.92284823	      0.21639315	      1.28918040	      7.64985578	     -6.43567869	    -15.91470287	     15.54601999	      5.59754720	   1050.60401050	     23.60917582	      0.18354560	      3.78491272	    -55.97501601	      0.77082688	     -4.25261783	    -10.45669261	     -7.52680035	      5.64844783	     -1.31873079	     -0.91377455	    -18.79392414	     13.30011677	     24.64204107	     86.51662706	      0.00000000	      0.00000000	     -1.15052414	    -13.31349397	     25.90443218	     17.48633140	     86.51662706	      0.00000000	      0.00000000
      1.69000000	      0.95234109	     -2.36416473	      1.58983702	     -0.11583121	      0.92273428	      0.21737498	     -0.17172934	      7.53717992	     -6.08011520	    -14.96625292	     15.47155192	      5.88342211	   1209.46739211	     24.46733531	      0.36695489	      3.48758865	    -53.64274254	      1.10195452	     -4.83433690	     -8.97585914	     -7.69147275	      5.37467681	     -0.71916464	     -0.35148125	    -19.11479968	     13.31551958	     25.47521743	     86.51662706	      0.00000000	      0.00000000	     -1.38436171	    -13.19713116	     26.28508505	     16.45017297	     86.51662706	      0.00000000	      0.00000000
      1.70000000	      1.04624606	     -2.22017439	      1.34764410	     -0.10274151	      0.92233920	      0.21832533	     -1.70094233	      7.46297128	     -5.85845273	    -13.99583428	     15.29743989	      6.25184362	   1379.03315180	     25.17547905	      0.49155266	      3.25112121	    -51.08654879	      1.31856095	     -5.44824523	     -7.47304362	     -7.91054528	      5.17165672	     -0.13553692	      0.23193280	    -19.46181969	     13.32929467	     26.31118138	     86.51662706	      0.00000000	      0.00000000	     -1.62991149	    -13.08356987	     26.59352218	     15.48708388	     86.51662706	      0.00000000	      0.00000000
      1.71000000	      1.18061837	     -2.12885770	      1.11180912	     -0.08962429	      0.92164103	      0.21923437	     -3.27782412	      7.42471242	     -5.76525818	    -13.04250747	     15.07194435	      6.68419137	   1559.77226537	     25.73607676	      0.56960929	      3.07782629	    -48.32561269	      1.45376142	     -6.08709385	     -5.96240694	     -8.18418377	      5.03037654	      0.42513028	      0.83516775	    -19.82961919	     13.35121165	     27.14172923	     86.51662706	      0.00000000	      0.00000000	     -1.88955363	    -12.97270626	     26.83657057	     14.59516506	     86.51662706	      0.00000000	      0.00000000
      1.72000000	      1.34939260	     -2.08537937	      0.87899670	     -0.07647962	      0.92070290	      0.22011176	     -4.86806046	      7.41704578	     -5.76614493	    -12.15123046	     14.86272022	      7.14911839	   1752.35721173	     26.15865467	      0.61254761	      2.96531071	    -45.38071561	      1.54586492	     -6.73635227	     -4.45877738	     -8.50665906	      4.94125599	      0.95806239	      1.45617445	    -20.21201869	     13.38965316	     27.95723989	     86.51662706	      0.00000000	      0.00000000	     -2.16656619	    -12.86422639	     27.02045225	     13.77146676	     86.51662706	      0.00000000	      0.00000000
      1.73000000	      1.54702703	     -2.08340492	      0.64849353	     -0.06331178	      0.91959397	      0.22096144	     -6.43586166	      7.43636991	     -5.80567234	    -11.36759198	     14.76257356	      7.61031646	   1957.67175611	     26.46041710	      0.62770477	      2.90841853	    -42.27297536	      1.63340866	     -7.37177988	     -2.97740841	     -8.86487932	      4.89726599	      1.46059521	      2.09145603	    -20.60216534	     13.45047870	     28.74748151	     86.51662706	      0.00000000	      0.00000000	     -2.46378498	    -12.75715984	     27.15095116	     13.01152224	     86.51662706	      0.00000000	      0.00000000
      1.74000000	      1.76582009	     -2.11616250	      0.42259787	     -0.05001290	      0.91827225	      0.22178587	     -7.95680580	      7.48295516	     -5.82377359	    -10.72941643	     14.88762262	      8.03585054	   2176.80378738	     26.66659803	      0.61651226	      2.89909375	    -39.02293997	      1.74953279	     -7.95764123	     -1.53369890	     -9.23876482	      4.89508666	      1.93206772	      2.73560320	    -20.99274728	     13.53607022	     29.50280703	     86.51662706	      0.00000000	      0.00000000	     -2.78255445	    -12.64962601	     27.23380718	     12.30918147	     86.51662706	      0.00000000	      0.00000000
      1.75000000	      1.98551165	     -2.17861471	      0.20417627	     -0.03647270	      0.91652156	      0.22257158	     -9.42741751	      7.55890463	     -5.77684544	    -10.25808700	     15.35928530	      8.40882014	   2411.01941171	     26.80583639	      0.57398519	      2.92414493	    -35.65335006	      1.91701282	     -8.44658308	     -0.14287386	     -9.60371816	      4.93393367	      2.37384678	      3.38128634	    -21.37647159	     13.64464556	     30.21563609	     86.51662706	      0.00000000	      0.00000000	     -3.12221229	    -12.53894790	     27.27522603	     11.65682312	     86.51662706	      0.00000000	      0.00000000
      1.76000000	      2.16487757	     -2.27020340	     -0.00610660	     -0.02287400	      0.91431155	      0.22328469	    -10.86105202	      7.66190266	     -5.65599219	     -9.95065250	     16.26801211	      8.73847055	   2661.71941015	     26.90101952	      0.49001712	      2.96211720	    -32.19651810	      2.14536436	     -8.78203636	      1.18037588	     -9.93447254	      5.01248232	      2.78930618	      4.01963156	    -21.74692486	     13.76992724	     30.88197925	     86.51662706	      0.00000000	      0.00000000	     -3.48017753	    -12.42218158	     27.28237758	     11.04593714	     86.51662706	      0.00000000	      0.00000000
